<?xml version="1.0" encoding="utf-8"?>
<!-- Generator: Adobe Illustrator 21.0.0, SVG Export Plug-In . SVG Version: 6.00 Build 0)  -->
<svg version="1.1" id="Layer_1" xmlns="http://www.w3.org/2000/svg" xmlns:xlink="http://www.w3.org/1999/xlink" x="0px" y="0px"
	 viewBox="0 0 2304 440" style="enable-background:new 0 0 2304 440;" xml:space="preserve">
<style type="text/css">
	.st0{fill:#B4282E;}
</style>
<g>
	<path class="st0" d="M379.9,105.3L250.6,19.1c0,164.3,46.6,217,125.9,289.2l3.4-2L379.9,105.3z M143.8,16.5L12.3,105.3l0,201
		l3.8,2.2C97.6,236.4,143.8,181.2,143.8,16.5z M195,263.5c-35.8,0-53.2,25.8-53.2,25.8l-67.7,66.5l122,67.9L317.3,355l-66.9-66.2
		C250.4,288.7,230.8,263.5,195,263.5z M535.6,74.2h206.7v63.3h-68.9V347h-76.7V137.5h-61V74.2L535.6,74.2z"/>
	<path class="st0" d="M733.1,74.2h74.5v99.7h73.9V74.2h75.1V347h-75.1V241.1h-73.9V347h-74.5L733.1,74.2L733.1,74.2z M1253,74.2
		h109.3l37,141.4l37.1-141.4H1541V347h-70V204l-48.6,143h-55.1L1323,204v143h-70V74.2z M1560.3,256.7l71.1-0.5
		c1.5,12.9,4.5,18.3,9.1,25c7.4,10.9,18.2,16.4,32.2,16.4c10.4,0,18.4-2.8,24.1-8.4c5.7-5.6,8.5-12.1,8.5-19.6c0-7-2.7-13.3-8-18.9
		c-5.3-5.6-17.9-10.8-37.8-15.8c-32.4-8.3-55.5-19.3-69.4-33c-14-13.7-20.9-31.3-20.9-52.6c0-14,3.6-27.2,10.7-39.7
		c7.2-12.4,17.9-22.2,32.2-29.4c14.3-7.1,33.9-10.7,58.9-10.7c30.5,0,53.9,6.5,69.9,19.4c16.1,12.9,25.7,33.5,28.8,61.7l-70,0.1
		c-1.9-12.1-5.7-16.5-11.6-22c-5.9-5.5-14-8.3-24.4-8.3c-8.4,0-14.8,2.1-19.2,6.2c-4.2,3.9-6.6,9.4-6.5,15.1c0,4.3,1.8,8.2,5.2,11.7
		c3.4,3.6,11.6,6.9,24.6,10c32.4,7.9,55.6,15.9,69.6,24c14,8.1,24.2,18.2,30.5,30.2c6.4,12,9.5,25.5,9.5,40.3
		c0.1,16.9-4.2,33.6-12.7,48.3c-8.2,14.5-20.6,26.2-35.6,33.5c-15.3,7.6-34.5,11.4-57.6,11.4c-40.8,0-69.1-8.9-84.7-26.7
		C1571.2,306.9,1562.4,284.2,1560.3,256.7L1560.3,256.7z M2062,74.2h96.5l63.1,150.4V74.2h70V347h-96.9l-62.7-149.7V347h-70V74.2z
		 M1064.6,152.6c9.3-11.9,21.6-17.9,36.9-17.9c16,0,28.7,5.9,38,17.6s14,30.3,14,55.7c0,30.2-4.5,51.2-13.4,62.9
		c-8.9,11.6-21.6,17.5-37.9,17.5c-15.9,0-28.4-6-37.7-17.9c-9.2-11.9-13.8-31.5-13.8-58.8C1050.6,184.2,1055.3,164.5,1064.6,152.6
		L1064.6,152.6z M991.7,290.2c11.3,21,26,36.4,44.2,46.1c18.1,9.7,41.1,14.6,68.8,14.6c27.3,0,50-5.6,68.3-16.9
		c18.3-11.3,32.2-27,41.9-47.2c9.6-20.2,14.5-46.2,14.5-77.8c0-43.5-11.1-77.4-33.2-101.6c-22.1-24.2-53.6-36.3-94.5-36.3
		c-39.9,0-71,12.3-93.3,36.9c-22.3,24.6-33.5,59-33.5,103.1C974.8,242.8,980.4,269.2,991.7,290.2L991.7,290.2z M1878.1,152.9
		c9.3-11.9,21.6-17.9,36.9-17.9c16,0,28.7,5.9,38,17.6c9.3,11.7,14,30.3,14,55.8c0,30.2-4.5,51.2-13.4,62.9
		c-8.9,11.6-21.6,17.5-37.9,17.5c-15.9,0-28.4-6-37.7-17.9c-9.2-11.9-13.8-31.5-13.8-58.8C1864.1,184.5,1868.8,164.8,1878.1,152.9
		L1878.1,152.9z M1805.2,290.5c11.3,21,26,36.4,44.1,46.1c18.1,9.7,41.1,14.6,68.8,14.6c27.3,0,50-5.6,68.3-16.9
		c18.3-11.3,32.2-27,41.9-47.2c9.6-20.2,14.5-46.2,14.5-77.8c0-43.6-11.1-77.4-33.2-101.6c-22.1-24.2-53.6-36.3-94.5-36.3
		c-39.9,0-71,12.3-93.3,36.9c-22.3,24.6-33.5,59-33.5,103.1C1788.3,243.1,1793.9,269.4,1805.2,290.5L1805.2,290.5z"/>
</g>
</svg>
